Coordinates
version=1
nRows=8
nColumns=46
inDegrees=yes

Units are S.I. units (second, meters, Newtons, ...)
Angles are in degrees.

endheader
time	pelvis_tilt	pelvis_list	pelvis_rotation	pelvis_tx	pelvis_ty	pelvis_tz	bb_angle	bb_tx	bb_ty	bb_tz	hip_flexion_r	hip_adduction_r	hip_rotation_r	knee_angle_r	knee_angle_r_beta	ankle_angle_r	subtalar_angle_r	mtp_angle_r	crank_angle_r	hip_flexion_l	hip_adduction_l	hip_rotation_l	knee_angle_l	knee_angle_l_beta	ankle_angle_l	subtalar_angle_l	mtp_angle_l	crank_angle_l	lumbar_extension	lumbar_bending	lumbar_rotation	arm_flex_r	arm_add_r	arm_rot_r	elbow_flex_r	pro_sup_r	wrist_flex_r	wrist_dev_r	arm_flex_l	arm_add_l	arm_rot_l	elbow_flex_l	pro_sup_l	wrist_flex_l	wrist_dev_l
      5.00500000	     -8.39201256	     -2.08615274	     -3.94725525	      0.18287597	      1.06687644	     -0.31541071	      0.00000000	      0.50000000	      0.00000000	      0.25000000	     64.28191563	     -0.61014290	      1.41444724	     66.61949167	      1.16272948	      6.52244793	    -10.79743701	      0.00000000	      0.00000000	     54.29297889	     -8.78554475	      4.14553781	     89.47153218	      1.56157282	    -13.48566157	     -7.80874466	      0.00000000	      0.00000000	    -68.97914454	      0.02453090	      3.01591757	     89.66272406	     -5.15813073	     25.21262162	     47.38458761	     24.38584063	      0.00000000	      0.00000000	     87.07638137	    -11.44566734	     26.38768280	     45.34887658	     37.36519768	      0.00000000	      0.00000000
      5.01000000	     -8.16709534	     -1.77251504	     -3.86601365	      0.18341509	      1.06540422	     -0.31467046	      0.00000000	      0.50000000	      0.00000000	      0.25000000	     63.01497979	     -0.94707867	      1.33304284	     64.80795621	      1.13111222	      4.88422722	    -10.66103745	      0.00000000	      0.00000000	     55.36853942	     -8.37449994	      4.41644672	     92.00924574	      1.60586428	    -12.63273412	     -7.83041884	      0.00000000	      0.00000000	    -69.04543474	     -0.16066645	      2.65874870	     89.65657922	     -5.27422942	     25.38159810	     47.37568601	     24.38721010	      0.00000000	      0.00000000	     87.11077040	    -11.54266720	     26.63667805	     45.33848632	     37.41629626	      0.00000000	      0.00000000
      5.01500000	     -7.95010104	     -1.20416738	     -3.78979090	      0.18397226	      1.06408207	     -0.31391624	      0.00000000	      0.50000000	      0.00000000	      0.25000000	     61.76259179	     -1.31706953	      1.74312855	     63.08463857	      1.10103465	      3.59833330	    -10.20040614	      0.00000000	      0.00000000	     56.38783822	     -7.73604070	      4.45423258	     94.38712254	      1.64736606	    -11.98963288	     -8.15509426	      0.00000000	      0.00000000	    -69.10038457	     -0.51540213	      2.09285352	     89.63922613	     -5.48857407	     25.36901610	     47.35089240	     24.38234590	      0.00000000	      0.00000000	     87.12176662	    -11.47529731	     26.70885216	     45.36248288	     37.43151561	      0.00000000	      0.00000000
      5.02000000	     -7.72989665	     -0.94936870	     -3.65153465	      0.18451562	      1.06307916	     -0.31295517	      0.00000000	      0.50000000	      0.00000000	      0.25000000	     60.36963545	     -1.57953504	      1.71022234	     61.15688656	      1.06738903	      1.55760061	    -10.02500213	      0.00000000	      0.00000000	     57.43826905	     -7.36750674	      4.72406882	     96.71119074	      1.68792870	    -10.92618427	     -8.20076259	      0.00000000	      0.00000000	    -69.19964902	     -0.64761680	      1.88272591	     89.63819828	     -5.69635508	     25.55861369	     47.25057012	     24.37941319	      0.00000000	      0.00000000	     87.25867290	    -11.54661226	     26.88465309	     45.45686877	     37.47548009	      0.00000000	      0.00000000
      5.02500000	     -7.56776319	     -0.53076035	     -3.49437183	      0.18522933	      1.06207592	     -0.31203364	      0.00000000	      0.50000000	      0.00000000	      0.25000000	     59.02729047	     -1.95279207	      1.91541478	     59.34816694	      1.03582092	     -0.04553399	     -9.60317978	      0.00000000	      0.00000000	     58.54875959	     -6.85724266	      4.88068481	     98.95221794	      1.72704201	    -10.07902731	     -8.36636729	      0.00000000	      0.00000000	    -69.24848752	     -0.90062521	      1.42926756	     89.62193944	     -5.91225061	     25.66487142	     47.17233606	     24.37537447	      0.00000000	      0.00000000	     87.28945191	    -11.51248366	     27.01830044	     45.50358232	     37.50232212	      0.00000000	      0.00000000
      5.03000000	     -7.43102442	     -0.60524116	     -3.34316913	      0.18573556	      1.06102957	     -0.31038902	      0.00000000	      0.50000000	      0.00000000	      0.25000000	     57.57657871	     -1.86411751	      1.72438459	     57.42350432	      1.00222922	     -2.23987714	    -10.37479536	      0.00000000	      0.00000000	     59.83345326	     -6.86069446	      5.51905835	    101.23342454	      1.76685657	     -8.81429310	     -7.55753511	      0.00000000	      0.00000000	    -69.23996238	     -0.98027729	      1.53847398	     89.62448152	     -6.50055027	     27.27080313	     46.79477627	     24.46049838	      0.00000000	      0.00000000	     87.34520394	    -11.76338999	     28.22935871	     45.63208536	     37.70239530	      0.00000000	      0.00000000
      5.03500000	     -7.24767515	     -0.10547982	     -3.05222494	      0.18627809	      1.06035690	     -0.30914547	      0.00000000	      0.50000000	      0.00000000	      0.25000000	     56.17404473	     -2.36584515	      2.03894002	     55.75640156	      0.97313279	     -3.47820230	     -9.76624413	      0.00000000	      0.00000000	     60.94521500	     -6.24036601	      5.59721853	    103.23514731	      1.80179322	     -8.05973562	     -7.92012869	      0.00000000	      0.00000000	    -69.31542270	     -1.26254782	      0.95667432	     89.60252965	     -6.71433933	     27.30887605	     46.72167909	     24.45492912	      0.00000000	      0.00000000	     87.44888766	    -11.68345627	     28.31561284	     45.63667519	     37.71425237	      0.00000000	      0.00000000
      5.04000000	     -6.93260657	      0.08745826	     -2.73415719	      0.18687411	      1.06021645	     -0.30798051	      0.00000000	      0.50000000	      0.00000000	      0.25000000	     54.47781172	     -2.75160941	      1.85139075	     53.87896065	      0.94036526	     -5.24356671	     -9.59701573	      0.00000000	      0.00000000	     61.95299091	     -5.86095240	      5.97066724	    105.15622944	      1.83532243	     -7.06564653	     -7.55837422	      0.00000000	      0.00000000	    -69.51511988	     -1.31509528	      0.84383352	     89.61065224	     -7.27733257	     28.64706502	     46.29654860	     24.55526615	      0.00000000	      0.00000000	     87.67838961	    -11.69866319	     29.34192853	     45.41757901	     37.81808545	      0.00000000	      0.00000000
